**** Job starts ****
Tue Mar 21 19:53:38 EDT 2023
**** JHPCE info ****
User: enelson
Job id: 3066427
Job name: PRECAST_k16-24
Hostname: compute-098.cm.cluster
Task id: 24
Loading conda_R/devel

Currently Loaded Modules:
  1) matlab/R2019a     6) COMMUNITY_CENTOS7_DEFAULT_ENV
  2) stata/17          7) JHPCE_CENTOS7_DEFAULT_ENV
  3) JHPCE_tools/1.0   8) conda/3-4.6.14
  4) sge/8.1.9         9) conda_R/devel
  5) gcc/4.4.7

 

Error in library(Seurat) : there is no package called ‘Seurat’
Calls: suppressPackageStartupMessages -> withCallingHandlers -> library
Execution halted
**** Job ends ****
Tue Mar 21 19:53:41 EDT 2023
**** Job starts ****
Tue Mar 21 20:03:53 EDT 2023
**** JHPCE info ****
User: enelson
Job id: 3066438
Job name: PRECAST_k16-24
Hostname: compute-098.cm.cluster
Task id: 24
Loading conda_R/devel

Currently Loaded Modules:
  1) matlab/R2019a     6) COMMUNITY_CENTOS7_DEFAULT_ENV
  2) stata/17          7) JHPCE_CENTOS7_DEFAULT_ENV
  3) JHPCE_tools/1.0   8) conda/3-4.6.14
  4) sge/8.1.9         9) conda_R/devel
  5) gcc/4.4.7

 

Error in library("Seurat") : there is no package called ‘Seurat’
Calls: suppressPackageStartupMessages -> withCallingHandlers -> library
Execution halted
**** Job ends ****
Tue Mar 21 20:03:56 EDT 2023
**** Job starts ****
Wed Mar 22 08:51:10 EDT 2023
**** JHPCE info ****
User: enelson
Job id: 3066458
Job name: PRECAST_k16-24
Hostname: compute-098.cm.cluster
Task id: 24
Loading conda_R/4.2.x

Currently Loaded Modules:
  1) matlab/R2019a     6) COMMUNITY_CENTOS7_DEFAULT_ENV
  2) stata/17          7) JHPCE_CENTOS7_DEFAULT_ENV
  3) JHPCE_tools/1.0   8) conda/3-4.11.0
  4) sge/8.1.9         9) conda_R/4.2.x
  5) gcc/4.4.7

 

Filter spots and features from Raw count data...
 
 
Calculating gene variances
0%   10   20   30   40   50   60   70   80   90   100%
[----|----|----|----|----|----|----|----|----|----|
**************************************************|
Calculating feature variances of standardized and clipped values
0%   10   20   30   40   50   60   70   80   90   100%
[----|----|----|----|----|----|----|----|----|----|
**************************************************|
Find the spatially variables genes by SPARK-X...

## ===== SPARK-X INPUT INFORMATION ====
## number of total samples: 14172
## number of total genes: 5000
## Running with single core, may take some time 

## Testing With Projection Kernel
## Testing With Gaussian Kernel 1
## Testing With Gaussian Kernel 2
## Testing With Gaussian Kernel 3
## Testing With Gaussian Kernel 4
## Testing With Gaussian Kernel 5
## Testing With Cosine Kernel 1
## Testing With Cosine Kernel 2
## Testing With Cosine Kernel 3
## Testing With Cosine Kernel 4
## Testing With Cosine Kernel 5
Calculating gene variances
0%   10   20   30   40   50   60   70   80   90   100%
[----|----|----|----|----|----|----|----|----|----|
**************************************************|
Calculating feature variances of standardized and clipped values
0%   10   20   30   40   50   60   70   80   90   100%
[----|----|----|----|----|----|----|----|----|----|
**************************************************|
Find the spatially variables genes by SPARK-X...

## ===== SPARK-X INPUT INFORMATION ====
## number of total samples: 19762
## number of total genes: 5000
## Running with single core, may take some time 

## Testing With Projection Kernel
## Testing With Gaussian Kernel 1
## Testing With Gaussian Kernel 2
## Testing With Gaussian Kernel 3
## Testing With Gaussian Kernel 4
## Testing With Gaussian Kernel 5
## Testing With Cosine Kernel 1
## Testing With Cosine Kernel 2
## Testing With Cosine Kernel 3
## Testing With Cosine Kernel 4
## Testing With Cosine Kernel 5
Calculating gene variances
0%   10   20   30   40   50   60   70   80   90   100%
[----|----|----|----|----|----|----|----|----|----|
**************************************************|
Calculating feature variances of standardized and clipped values
0%   10   20   30   40   50   60   70   80   90   100%
[----|----|----|----|----|----|----|----|----|----|
**************************************************|
Find the spatially variables genes by SPARK-X...

## ===== SPARK-X INPUT INFORMATION ====
## number of total samples: 14117
## number of total genes: 5000
## Running with single core, may take some time 

## Testing With Projection Kernel
## Testing With Gaussian Kernel 1
## Testing With Gaussian Kernel 2
## Testing With Gaussian Kernel 3
## Testing With Gaussian Kernel 4
## Testing With Gaussian Kernel 5
## Testing With Cosine Kernel 1
## Testing With Cosine Kernel 2
## Testing With Cosine Kernel 3
## Testing With Cosine Kernel 4
## Testing With Cosine Kernel 5
Calculating gene variances
0%   10   20   30   40   50   60   70   80   90   100%
[----|----|----|----|----|----|----|----|----|----|
**************************************************|
Calculating feature variances of standardized and clipped values
0%   10   20   30   40   50   60   70   80   90   100%
[----|----|----|----|----|----|----|----|----|----|
**************************************************|
Find the spatially variables genes by SPARK-X...

## ===== SPARK-X INPUT INFORMATION ====
## number of total samples: 8670
## number of total genes: 5000
## Running with single core, may take some time 

## Testing With Projection Kernel
## Testing With Gaussian Kernel 1
## Testing With Gaussian Kernel 2
## Testing With Gaussian Kernel 3
## Testing With Gaussian Kernel 4
## Testing With Gaussian Kernel 5
## Testing With Cosine Kernel 1
## Testing With Cosine Kernel 2
## Testing With Cosine Kernel 3
## Testing With Cosine Kernel 4
## Testing With Cosine Kernel 5
Calculating gene variances
0%   10   20   30   40   50   60   70   80   90   100%
[----|----|----|----|----|----|----|----|----|----|
**************************************************|
Calculating feature variances of standardized and clipped values
0%   10   20   30   40   50   60   70   80   90   100%
[----|----|----|----|----|----|----|----|----|----|
**************************************************|
Find the spatially variables genes by SPARK-X...

## ===== SPARK-X INPUT INFORMATION ====
## number of total samples: 14400
## number of total genes: 5000
## Running with single core, may take some time 

## Testing With Projection Kernel
## Testing With Gaussian Kernel 1
## Testing With Gaussian Kernel 2
## Testing With Gaussian Kernel 3
## Testing With Gaussian Kernel 4
## Testing With Gaussian Kernel 5
## Testing With Cosine Kernel 1
## Testing With Cosine Kernel 2
## Testing With Cosine Kernel 3
## Testing With Cosine Kernel 4
## Testing With Cosine Kernel 5
Calculating gene variances
0%   10   20   30   40   50   60   70   80   90   100%
[----|----|----|----|----|----|----|----|----|----|
**************************************************|
Calculating feature variances of standardized and clipped values
0%   10   20   30   40   50   60   70   80   90   100%
[----|----|----|----|----|----|----|----|----|----|
**************************************************|
Find the spatially variables genes by SPARK-X...

## ===== SPARK-X INPUT INFORMATION ====
## number of total samples: 18746
## number of total genes: 5000
## Running with single core, may take some time 

## Testing With Projection Kernel
## Testing With Gaussian Kernel 1
## Testing With Gaussian Kernel 2
## Testing With Gaussian Kernel 3
## Testing With Gaussian Kernel 4
## Testing With Gaussian Kernel 5
## Testing With Cosine Kernel 1
## Testing With Cosine Kernel 2
## Testing With Cosine Kernel 3
## Testing With Cosine Kernel 4
## Testing With Cosine Kernel 5
Calculating gene variances
0%   10   20   30   40   50   60   70   80   90   100%
[----|----|----|----|----|----|----|----|----|----|
**************************************************|
Calculating feature variances of standardized and clipped values
0%   10   20   30   40   50   60   70   80   90   100%
[----|----|----|----|----|----|----|----|----|----|
**************************************************|
Find the spatially variables genes by SPARK-X...

## ===== SPARK-X INPUT INFORMATION ====
## number of total samples: 20693
## number of total genes: 5000
## Running with single core, may take some time 

## Testing With Projection Kernel
## Testing With Gaussian Kernel 1
## Testing With Gaussian Kernel 2
## Testing With Gaussian Kernel 3
## Testing With Gaussian Kernel 4
## Testing With Gaussian Kernel 5
## Testing With Cosine Kernel 1
## Testing With Cosine Kernel 2
## Testing With Cosine Kernel 3
## Testing With Cosine Kernel 4
## Testing With Cosine Kernel 5
Calculating gene variances
0%   10   20   30   40   50   60   70   80   90   100%
[----|----|----|----|----|----|----|----|----|----|
**************************************************|
Calculating feature variances of standardized and clipped values
0%   10   20   30   40   50   60   70   80   90   100%
[----|----|----|----|----|----|----|----|----|----|
**************************************************|
Find the spatially variables genes by SPARK-X...

## ===== SPARK-X INPUT INFORMATION ====
## number of total samples: 8390
## number of total genes: 5000
## Running with single core, may take some time 

## Testing With Projection Kernel
## Testing With Gaussian Kernel 1
## Testing With Gaussian Kernel 2
## Testing With Gaussian Kernel 3
## Testing With Gaussian Kernel 4
## Testing With Gaussian Kernel 5
## Testing With Cosine Kernel 1
## Testing With Cosine Kernel 2
## Testing With Cosine Kernel 3
## Testing With Cosine Kernel 4
## Testing With Cosine Kernel 5
Calculating gene variances
0%   10   20   30   40   50   60   70   80   90   100%
[----|----|----|----|----|----|----|----|----|----|
**************************************************|
Calculating feature variances of standardized and clipped values
0%   10   20   30   40   50   60   70   80   90   100%
[----|----|----|----|----|----|----|----|----|----|
**************************************************|
Find the spatially variables genes by SPARK-X...

## ===== SPARK-X INPUT INFORMATION ====
## number of total samples: 18159
## number of total genes: 5000
## Running with single core, may take some time 

## Testing With Projection Kernel
## Testing With Gaussian Kernel 1
## Testing With Gaussian Kernel 2
## Testing With Gaussian Kernel 3
## Testing With Gaussian Kernel 4
## Testing With Gaussian Kernel 5
## Testing With Cosine Kernel 1
## Testing With Cosine Kernel 2
## Testing With Cosine Kernel 3
## Testing With Cosine Kernel 4
## Testing With Cosine Kernel 5
Calculating gene variances
0%   10   20   30   40   50   60   70   80   90   100%
[----|----|----|----|----|----|----|----|----|----|
**************************************************|
